<svg version="1.1" id="Layer_1" xmlns="http://www.w3.org/2000/svg" x="0" y="0" viewBox="0 0 128 85" style="enable-background:new 0 0 128 85" xml:space="preserve">
  <style>
    .st1{fill:#fff}
  </style>
  <filter filterUnits="userSpaceOnUse" height="85" id="a" width="128" x="0" y="0">
    <feColorMatrix values="1 0 0 0 0 0 1 0 0 0 0 0 1 0 0 0 0 0 1 0"/>
  </filter>
  <defs>
    <filter id="Adobe_OpacityMaskFilter" filterUnits="userSpaceOnUse" x="0" y="0" width="128" height="85">
      <feColorMatrix values="1 0 0 0 0 0 1 0 0 0 0 0 1 0 0 0 0 0 1 0"/>
    </filter>
  </defs>
  <mask maskUnits="userSpaceOnUse" x="0" y="0" width="128" height="85" id="b_1_">
    <path class="st1" d="M108 85H20C9 85 0 76 0 65V20C0 9 9 0 20 0h88c11 0 20 9 20 20v45c0 11-9 20-20 20z" style="filter:url(#a)"/>
  </mask>
  <g style="mask:url(#b_1_)">
    <path d="M0 0h128v85H0V0z" style="fill:#750787"/>
    <path d="M0 0h128v70.8H0V0z" style="fill:#004dff"/>
    <path d="M0 0h128v56.7H0V0z" style="fill:#008026"/>
    <path d="M0 0h128v42.5H0V0z" style="fill:#ffed00"/>
    <path d="M0 0h128v28.3H0V0z" style="fill:#ff8c00"/>
    <path d="M0 0h128v14.2H0V0z" style="fill:#e40303"/>
    <path d="M0 85h67.5l.1-85H0v85z"/>
    <path d="m0 75.9 58.3-.1.1-75.7L0 0v75.9z" style="fill:#613915"/>
    <path d="m49.1 0 .1 66.7L0 66.6V0h49.1z" style="fill:#74d7ee"/>
    <path d="m0 57.4 39.8-.2.1-57.1L0 0v57.4z" style="fill:#ffafc8"/>
    <path class="st1" d="M30.7.1v48.1L0 48.1V.1h30.7z"/>
  </g>
  <path class="st1" d="m95.9 32.3 6.7-3.9.6-.3.5-.3c1.5-.9 2.8-2 3.9-3.2s1.9-2.5 2.5-3.9.8-2.8.8-4.3c0-2.2-.6-4.3-1.9-6-1.3-1.8-3-3.2-5.2-4.2-2.4-1-4.9-1.5-7.5-1.5-3 0-5.5.5-7.7 1.5s-3.8 2.4-4.9 4.1l-.8 1.4a2 2 0 0 0-.4-.6c-.7-1-1.8-1.7-3-2l.8-2.4c.3-.8.7-1.5 1.1-2.1H77c-1.2 1-2.2 2.5-3.1 4.3-.8 1.6-1.3 3.4-1.3 5.2 0 1.7.5 3.1 1.6 4 1.9 1.7 4.6 2 6.8.7l1.2-1c.3 1.2.8 2.3 1.7 3.3 1.3 1.4 2.9 2.4 4.9 3.1 2 .6 4.1.9 6.3.9l1.1-.1.9-.4-.4.5-.6.5-13.7 7.6v7.1h29v-7.9l-15.5-.1zm.4-8c-1.1 0-2.1-.2-2.9-.7a4.5 4.5 0 0 1-2-2.1c-.5-.9-.7-2-.7-3.2s.2-2.2.7-3.2c.4-.9 1.1-1.6 2-2.1.9-.5 1.8-.8 2.9-.8 1.2 0 2.2.3 3.1.8.9.5 1.6 1.2 2 2.1.5.9.7 2 .7 3.2s-.2 2.3-.7 3.2c-.5.9-1.2 1.6-2.1 2.1-.9.5-2 .7-3 .7zm13.3 42.4.6-.3.5-.3c1.5-.9 2.8-2 3.9-3.2s1.9-2.5 2.5-3.9.8-2.8.8-4.3c0-2.2-.6-4.3-1.9-6-1.3-1.8-3-3.2-5.2-4.2-2.4-1-4.9-1.5-7.5-1.5-3 0-5.5.5-7.7 1.5s-3.8 2.4-4.9 4.1A9.6 9.6 0 0 0 89 54c0 2.2.6 3.9 1.9 5.3 1.3 1.4 2.9 2.4 4.9 3.1 2 .6 4.1.9 6.3.9l1.1-.1.9-.4-.4.5-.6.5-13.7 7.6v7.1h29v-7.9h-15.5l6.7-3.9zm-6.3-4c-1.1 0-2.1-.2-2.9-.7a4.5 4.5 0 0 1-2-2.1c-.5-.9-.7-2-.7-3.2s.2-2.2.7-3.2c.4-.9 1.1-1.6 2-2.1.9-.5 1.8-.8 2.9-.8 1.2 0 2.2.3 3.1.8.9.5 1.6 1.2 2 2.1.5.9.7 2 .7 3.2s-.2 2.3-.7 3.2-1.2 1.6-2.1 2.1c-.9.4-1.9.7-3 .7z"/>
</svg>
