<?xml version="1.0" standalone="no"?>
<!DOCTYPE svg PUBLIC "-//W3C//DTD SVG 20010904//EN"
 "http://www.w3.org/TR/2001/REC-SVG-20010904/DTD/svg10.dtd">
<svg version="1.0" xmlns="http://www.w3.org/2000/svg"
 width="1024.000000pt" height="1024.000000pt" viewBox="0 0 1024.000000 1024.000000"
 preserveAspectRatio="xMidYMid meet">
<metadata>
Created by potrace 1.11, written by Peter Selinger 2001-2013
</metadata>
<g transform="translate(0.000000,1024.000000) scale(0.100000,-0.100000)"
fill="#000000" stroke="none">
<path d="M640 5120 l0 -4480 4480 0 4480 0 0 4480 0 4480 -4480 0 -4480 0 0
-4480z m1920 2240 l0 -1600 -640 0 -640 0 0 1600 0 1600 640 0 640 0 0 -1600z
m1280 0 l0 -1600 320 0 320 0 0 640 0 640 320 0 320 0 0 320 0 320 -320 0
-320 0 0 640 0 640 2240 0 2240 0 0 -3840 0 -3840 -640 0 -640 0 0 320 0 320
-320 0 -320 0 0 -320 0 -320 -1600 0 -1600 0 0 320 0 320 -320 0 -320 0 0
-320 0 -320 -960 0 -960 0 0 1600 0 1600 320 0 320 0 0 320 0 320 640 0 640 0
0 1920 0 1920 320 0 320 0 0 -1600z"/>
<path d="M5120 6400 l0 -640 320 0 320 0 0 320 0 320 320 0 320 0 0 -640 0
-640 320 0 320 0 0 320 0 320 320 0 320 0 0 -1920 0 -1920 320 0 320 0 0 1920
0 1920 -320 0 -320 0 0 320 0 320 -640 0 -640 0 0 320 0 320 -640 0 -640 0 0
-640z"/>
<path d="M1920 3840 l0 -640 320 0 320 0 0 -640 0 -640 320 0 320 0 0 640 0
640 -320 0 -320 0 0 640 0 640 -320 0 -320 0 0 -640z"/>
</g>
</svg>
